<?xml version="1.0" encoding="UTF-8"?>
<svg id="Layer_2" data-name="Layer 2" xmlns="http://www.w3.org/2000/svg" xmlns:xlink="http://www.w3.org/1999/xlink" viewBox="0 0 64.21 70">
  <defs>
    <style>
      .cls-1 {
        stroke-miterlimit: 10;
      }

      .cls-1, .cls-2, .cls-3 {
        fill: none;
        stroke: #1a2e35;
      }

      .cls-1, .cls-3 {
        stroke-width: 0px;
      }

      .cls-4 {
        opacity: .7;
      }

      .cls-4, .cls-5, .cls-6, .cls-7, .cls-8, .cls-9, .cls-10, .cls-11, .cls-12, .cls-13, .cls-14, .cls-15, .cls-16, .cls-17, .cls-18, .cls-19, .cls-20, .cls-21, .cls-22, .cls-23 {
        stroke-width: 0px;
      }

      .cls-4, .cls-6, .cls-7, .cls-14, .cls-16, .cls-19, .cls-21, .cls-24 {
        isolation: isolate;
      }

      .cls-4, .cls-10 {
        fill: #282462;
      }

      .cls-5 {
        fill: url(#linear-gradient);
      }

      .cls-6 {
        opacity: .2;
      }

      .cls-7 {
        opacity: .3;
      }

      .cls-8 {
        fill: #007cff;
      }

      .cls-9 {
        fill: url(#linear-gradient-6);
      }

      .cls-11 {
        fill: #fd897b;
      }

      .cls-2 {
        stroke-width: .25px;
      }

      .cls-2, .cls-3 {
        stroke-linecap: round;
        stroke-linejoin: round;
      }

      .cls-12 {
        fill: url(#linear-gradient-5);
      }

      .cls-13, .cls-16, .cls-21 {
        fill: #fff;
      }

      .cls-14, .cls-24 {
        opacity: .1;
      }

      .cls-15 {
        fill: url(#linear-gradient-2);
      }

      .cls-16 {
        opacity: .6;
      }

      .cls-17 {
        fill: url(#linear-gradient-3);
      }

      .cls-18 {
        fill: #fd5652;
      }

      .cls-19, .cls-21 {
        opacity: .4;
      }

      .cls-20 {
        fill: #e2007d;
      }

      .cls-22 {
        fill: url(#linear-gradient-4);
      }

      .cls-23 {
        fill: #263237;
      }
    </style>
    <linearGradient id="linear-gradient" x1="5086.86" y1="54.72" x2="5088.27" y2="54.72" gradientTransform="translate(-5070.03)" gradientUnits="userSpaceOnUse">
      <stop offset="0" stop-color="#ff8e8a"/>
      <stop offset="1" stop-color="#faafad"/>
    </linearGradient>
    <linearGradient id="linear-gradient-2" x1="5093.51" y1="54.84" x2="5095.18" y2="54.84" xlink:href="#linear-gradient"/>
    <linearGradient id="linear-gradient-3" x1="593.37" y1="29.4" x2="596.49" y2="33.09" gradientTransform="translate(608.71) rotate(-180) scale(1 -1)" xlink:href="#linear-gradient"/>
    <linearGradient id="linear-gradient-4" x1="5091.26" y1="39.34" x2="5095.13" y2="39.34" xlink:href="#linear-gradient"/>
    <linearGradient id="linear-gradient-5" x1="590.32" y1="28.29" x2="593.83" y2="29.04" gradientTransform="translate(608.71) rotate(-180) scale(1 -1)" xlink:href="#linear-gradient"/>
    <linearGradient id="linear-gradient-6" x1="590.5" y1="27.43" x2="594.02" y2="28.19" gradientTransform="translate(608.71) rotate(-180) scale(1 -1)" xlink:href="#linear-gradient"/>
  </defs>
  <g id="Layer_1-2" data-name="Layer 1">
    <g>
      <path class="cls-10" d="m6.03,46.49c-.21.31-1.06,7.44-1.19,10.08,0,.18.13.33.31.33h0c.15,0,.28-.11.31-.26l1.55-9.91-.98-.23Z"/>
      <path class="cls-10" d="m12.83,46.49c.21.31,1.06,7.44,1.19,10.08,0,.18-.13.33-.31.33h0c-.15,0-.28-.11-.31-.26l-1.55-9.91.98-.23Z"/>
      <path class="cls-20" d="m4.75,45.93v.08c0,.56.48,1.02,1.08,1.03l7.15.12c.59.01,1.09-.42,1.12-.97v-.07c.03-.57-.45-1.06-1.07-1.07l-7.15-.13c-.61-.01-1.12.44-1.12,1.01Z"/>
    </g>
    <g>
      <g>
        <path class="cls-10" d="m18.66,56.31c-1.27,0-1.83-.11-2.08-.21.05.21.23.37.47.37h4.5c.15,0,.25-.14.21-.28-.51.04-1.6.11-3.09.11Z"/>
        <path class="cls-20" d="m21.75,56.2s-.02-.05-.04-.08c-.34-.44-1.03-1.12-1.97-1.11-1.37.02-1.85.17-2.91,0l-.25.83c-.03.08-.03.17,0,.25.25.1.81.21,2.08.21,1.49,0,2.58-.07,3.09-.11Z"/>
      </g>
      <path class="cls-5" d="m17.14,54.12l-.31,1.05s.68.31,1.28.06l.12-.91-1.09-.2Z"/>
      <g>
        <path class="cls-10" d="m26.46,55.65c-.99.8-1.5,1.06-1.76,1.14.17.13.42.14.6,0l3.51-2.82c.12-.09.1-.27,0-.35-.37.35-1.18,1.09-2.34,2.02Z"/>
        <path class="cls-20" d="m28.8,53.62s-.05-.03-.08-.04c-.54-.12-1.5-.23-2.23.37-1.06.87-1.34,1.29-2.27,1.83l.32.8c.03.08.09.15.15.2.26-.08.76-.35,1.76-1.14,1.16-.93,1.97-1.67,2.34-2.02Z"/>
      </g>
      <path class="cls-10" d="m10.54,42.16s7.61.62,9.17,1.36c1.56.73-1.27,11.03-1.27,11.03,0,0-.42.2-1.37-.09,0,0,.97-7.6.25-9.25l-8.24-1.35,1.46-1.7Z"/>
      <path class="cls-15" d="m23.48,54.34c.07.06.76,1.45.76,1.45,0,0,.76-.17.92-.65l-.69-1.25-.99.45Z"/>
      <path class="cls-10" d="m5.96,42.1s-.25.6-.24,1.39c.01,1.1.9,1.99,1.99,2.04l9,.41c.19,0,.35.14.4.32.21.82,1.24,3.33,6.3,8.34.13.13.34.16.5.05l.72-.45c.08-.05.1-.15.05-.22l-5.24-8.94c-.28-.45-.72-.78-1.23-.91l-7.67-1.96-4.58-.06Z"/>
      <path class="cls-17" d="m14.82,28.13s-.96,1.7-1.95,2.53l2.03,1.13s.46-1.8,1.5-2.33l-1.59-1.33Z"/>
      <path class="cls-20" d="m5.8,42.16s2.43.59,4.75,0c0,0,3.24-4.36,4.5-5.55,0,0,2,3.16,6.46,3.61l.25-.56s-3.55-1.64-4.64-4.15c-1.09-2.51-1.53-3.58-2.52-4.24-.62-.41-.99-.69-1.18-.84-.1-.08-.25-.09-.36-.02-1.05.64-6.01,4.04-7.24,11.75Z"/>
      <path class="cls-10" d="m14.93,36.59s.02-.03.01-.07c-.02-.09-.1-.24-.18-.32-.67-.72-1.33-1.59-1.34-1.6-.08-.11-.15-.14-.16-.08,0,.06.06.2.14.31.03.04.71.94,1.43,1.7.05.05.08.07.1.06Z"/>
      <path class="cls-22" d="m21.23,39.38l.5-.13,1.52-.35c.18-.04.38,0,.54.09l1.31.82h-3.62s-.25-.43-.25-.43Z"/>
      <g>
        <path class="cls-12" d="m18.12,27.13s-.11,1.81-.46,2.61c-.35.8-.44,1.39-1.42,1.09-.98-.3-1.51-1.14-1.53-2.12,0,0-.03-1.52.36-1.94.39-.42,3.05.36,3.05.36Z"/>
        <path class="cls-10" d="m15.3,28.31l.11.06s.02-1.2.52-1.16c.5.04,2.3.54,2.95.14.62-.39.69-1.26.34-1.69-.02-.03-.06-.03-.09-.01l-.07.05c-.05.04-.12,0-.11-.07h0c.01-.06-.05-.1-.1-.07-.2.12-.63.25-1.49,0-1.22-.36-2.18-.29-2.59.47-.03.05-.09.05-.12,0-.06-.09-.18-.18-.43-.12-.44.1-.65.83-.26,1.72.02.04,0,.09-.05.1-.16.02-.44.11-.1.6.35.5.65.62.77.64.03,0,.07,0,.08-.04l.3-.7s.06-.05.09-.03l.24.12Z"/>
        <path class="cls-9" d="m15.26,28.47s.24-1.07-.32-1.02c-.56.05-.32,1.17,0,1.38l.32-.36Z"/>
      </g>
    </g>
    <g>
      <path class="cls-10" d="m20.13,40.4s.01,0,.02,0h7.72c.19,0,.35-.16.35-.35,0-.19-.16-.35-.35-.34h-7.72c-.19,0-.35.16-.35.35,0,.18.15.34.33.34Z"/>
      <path class="cls-10" d="m30.87,32.83s0,.01,0,.02l-3.25,7.01c-.08.17,0,.38.17.46.17.08.38,0,.46-.17l3.25-7.01c.08-.17,0-.38-.17-.46-.17-.08-.37,0-.45.15Z"/>
    </g>
    <g>
      <path class="cls-10" d="m23.27,40.9c-.03.14-3.26,12.23-4.07,15.29-.09.35.17.7.53.7h0c.25,0,.47-.17.53-.42l3.58-14.51-.57-1.06Z"/>
      <path class="cls-10" d="m25.04,40.9c.03.14,3.26,12.23,4.07,15.29.09.35-.17.7-.53.7h0c-.25,0-.47-.17-.53-.42l-3.58-14.51.57-1.06Z"/>
      <path class="cls-10" d="m25.17,40.51h-2.01s0,1.61,0,1.61c0,.23.19.42.41.42h.28v3.62c0,.18.14.32.31.32h0c.17,0,.31-.14.31-.32v-3.62h.14c.3,0,.55-.25.55-.56v-1.47Z"/>
      <path class="cls-20" d="m18.23,40.12h11.21c.16,0,.29.11.33.26l.16.61c.06.22-.11.44-.33.43l-11.5-.07c-.22,0-.39-.21-.33-.43l.14-.55c.04-.15.18-.26.33-.26Z"/>
    </g>
    <ellipse id="_Path_" data-name="&amp;lt;Path&amp;gt;" class="cls-10" cx="30.86" cy="65.7" rx="27.55" ry="2.32"/>
    <g>
      <polygon class="cls-10" points="25.27 63.11 49.17 63.11 51.4 54.27 27.5 54.27 25.27 63.11"/>
      <polygon class="cls-10" points="27.53 54.27 51.43 54.27 53.67 63.11 29.76 63.11 27.53 54.27"/>
      <polygon class="cls-16" points="27.53 54.27 51.43 54.27 53.67 63.11 29.76 63.11 27.53 54.27"/>
    </g>
    <g>
      <polygon class="cls-10" points="0 63.11 23.91 63.11 26.14 54.27 2.23 54.27 0 63.11"/>
      <polygon class="cls-10" points="2.26 54.27 26.17 54.27 28.4 63.11 4.49 63.11 2.26 54.27"/>
      <polygon class="cls-16" points="2.26 54.27 26.17 54.27 28.4 63.11 4.49 63.11 2.26 54.27"/>
    </g>
    <g>
      <rect class="cls-10" x="23.04" y="0" width="1.03" height="62.82"/>
      <rect class="cls-21" x="23.04" y="0" width="1.03" height="62.82"/>
      <polygon class="cls-7" points="23.04 0 23.04 35.26 24.07 34.76 24.07 0 23.04 0"/>
    </g>
    <g>
      <rect class="cls-10" x="59.79" y="0" width="1.03" height="70"/>
      <rect class="cls-21" x="59.79" y="0" width="1.03" height="70"/>
      <polygon class="cls-7" points="60.81 0 59.79 0 59.79 16.79 60.81 16.29 60.81 0"/>
    </g>
    <g>
      <rect class="cls-8" x="22.49" y=".42" width="38.76" height="11.07" transform="translate(83.74 11.92) rotate(-180)"/>
      <rect class="cls-4" x="22.49" y=".42" width="38.76" height="11.07" transform="translate(83.74 11.92) rotate(-180)"/>
    </g>
    <g>
      <rect class="cls-20" x="58.48" y="8.73" width="2.77" height="2.77" transform="translate(119.73 20.23) rotate(-180)"/>
      <rect class="cls-20" x="58.48" y="3.19" width="2.77" height="2.77" transform="translate(119.73 9.15) rotate(-180)"/>
      <rect class="cls-20" x="55.71" y="5.96" width="2.77" height="2.77" transform="translate(114.19 14.69) rotate(-180)"/>
      <rect class="cls-20" x="52.94" y="8.73" width="2.77" height="2.77" transform="translate(108.66 20.23) rotate(-180)"/>
      <g>
        <rect class="cls-20" x="55.71" y=".42" width="2.77" height="2.77" transform="translate(114.19 3.61) rotate(-180)"/>
        <rect class="cls-20" x="52.94" y="3.19" width="2.77" height="2.77" transform="translate(108.66 9.15) rotate(-180)"/>
        <rect class="cls-20" x="50.18" y="5.96" width="2.77" height="2.77" transform="translate(103.12 14.69) rotate(-180)"/>
        <rect class="cls-20" x="47.41" y="8.73" width="2.77" height="2.77" transform="translate(97.58 20.23) rotate(-180)"/>
      </g>
      <g>
        <rect class="cls-20" x="50.18" y=".42" width="2.77" height="2.77" transform="translate(103.12 3.61) rotate(-180)"/>
        <rect class="cls-20" x="47.41" y="3.19" width="2.77" height="2.77" transform="translate(97.58 9.15) rotate(-180)"/>
        <rect class="cls-20" x="44.64" y="5.96" width="2.77" height="2.77" transform="translate(92.05 14.69) rotate(-180)"/>
        <rect class="cls-20" x="41.87" y="8.73" width="2.77" height="2.77" transform="translate(86.51 20.23) rotate(-180)"/>
      </g>
      <g>
        <rect class="cls-20" x="44.64" y=".42" width="2.77" height="2.77" transform="translate(92.05 3.61) rotate(-180)"/>
        <rect class="cls-20" x="41.87" y="3.19" width="2.77" height="2.77" transform="translate(86.51 9.15) rotate(-180)"/>
        <rect class="cls-20" x="39.1" y="5.96" width="2.77" height="2.77" transform="translate(80.97 14.69) rotate(-180)"/>
        <rect class="cls-20" x="36.33" y="8.73" width="2.77" height="2.77" transform="translate(75.44 20.23) rotate(-180)"/>
      </g>
      <g>
        <rect class="cls-20" x="39.1" y=".42" width="2.77" height="2.77" transform="translate(80.97 3.61) rotate(-180)"/>
        <rect class="cls-20" x="36.33" y="3.19" width="2.77" height="2.77" transform="translate(75.44 9.15) rotate(-180)"/>
        <rect class="cls-20" x="33.56" y="5.96" width="2.77" height="2.77" transform="translate(69.9 14.69) rotate(-180)"/>
        <rect class="cls-20" x="30.8" y="8.73" width="2.77" height="2.77" transform="translate(64.36 20.23) rotate(-180)"/>
      </g>
      <g>
        <rect class="cls-20" x="33.56" y=".42" width="2.77" height="2.77" transform="translate(69.9 3.61) rotate(-180)"/>
        <rect class="cls-20" x="30.8" y="3.19" width="2.77" height="2.77" transform="translate(64.36 9.15) rotate(-180)"/>
        <rect class="cls-20" x="28.03" y="5.96" width="2.77" height="2.77" transform="translate(58.82 14.69) rotate(-180)"/>
        <rect class="cls-20" x="25.26" y="8.73" width="2.77" height="2.77" transform="translate(53.29 20.23) rotate(-180)"/>
      </g>
      <rect class="cls-20" x="28.03" y=".42" width="2.77" height="2.77" transform="translate(58.82 3.61) rotate(-180)"/>
      <rect class="cls-20" x="25.26" y="3.19" width="2.77" height="2.77" transform="translate(53.29 9.15) rotate(-180)"/>
      <rect class="cls-20" x="22.49" y="5.96" width="2.77" height="2.77" transform="translate(47.75 14.69) rotate(-180)"/>
      <rect class="cls-20" x="22.49" y=".42" width="2.77" height="2.77" transform="translate(47.75 3.61) rotate(-180)"/>
    </g>
    <g class="cls-24">
      <rect class="cls-13" x="58.48" y="8.73" width="2.77" height="2.77" transform="translate(119.73 20.23) rotate(-180)"/>
      <rect class="cls-13" x="58.48" y="3.19" width="2.77" height="2.77" transform="translate(119.73 9.15) rotate(-180)"/>
      <rect class="cls-13" x="55.71" y="5.96" width="2.77" height="2.77" transform="translate(114.19 14.69) rotate(-180)"/>
      <rect class="cls-13" x="52.94" y="8.73" width="2.77" height="2.77" transform="translate(108.66 20.23) rotate(-180)"/>
      <g>
        <rect class="cls-13" x="55.71" y=".42" width="2.77" height="2.77" transform="translate(114.19 3.61) rotate(-180)"/>
        <rect class="cls-13" x="52.94" y="3.19" width="2.77" height="2.77" transform="translate(108.66 9.15) rotate(-180)"/>
        <rect class="cls-13" x="50.18" y="5.96" width="2.77" height="2.77" transform="translate(103.12 14.69) rotate(-180)"/>
        <rect class="cls-13" x="47.41" y="8.73" width="2.77" height="2.77" transform="translate(97.58 20.23) rotate(-180)"/>
      </g>
      <g>
        <rect class="cls-13" x="50.18" y=".42" width="2.77" height="2.77" transform="translate(103.12 3.61) rotate(-180)"/>
        <rect class="cls-13" x="47.41" y="3.19" width="2.77" height="2.77" transform="translate(97.58 9.15) rotate(-180)"/>
        <rect class="cls-13" x="44.64" y="5.96" width="2.77" height="2.77" transform="translate(92.05 14.69) rotate(-180)"/>
        <rect class="cls-13" x="41.87" y="8.73" width="2.77" height="2.77" transform="translate(86.51 20.23) rotate(-180)"/>
      </g>
      <g>
        <rect class="cls-13" x="44.64" y=".42" width="2.77" height="2.77" transform="translate(92.05 3.61) rotate(-180)"/>
        <rect class="cls-13" x="41.87" y="3.19" width="2.77" height="2.77" transform="translate(86.51 9.15) rotate(-180)"/>
        <rect class="cls-13" x="39.1" y="5.96" width="2.77" height="2.77" transform="translate(80.97 14.69) rotate(-180)"/>
        <rect class="cls-13" x="36.33" y="8.73" width="2.77" height="2.77" transform="translate(75.44 20.23) rotate(-180)"/>
      </g>
      <g>
        <rect class="cls-13" x="39.1" y=".42" width="2.77" height="2.77" transform="translate(80.97 3.61) rotate(-180)"/>
        <rect class="cls-13" x="36.33" y="3.19" width="2.77" height="2.77" transform="translate(75.44 9.15) rotate(-180)"/>
        <rect class="cls-13" x="33.56" y="5.96" width="2.77" height="2.77" transform="translate(69.9 14.69) rotate(-180)"/>
        <rect class="cls-13" x="30.8" y="8.73" width="2.77" height="2.77" transform="translate(64.36 20.23) rotate(-180)"/>
      </g>
      <g>
        <rect class="cls-13" x="33.56" y=".42" width="2.77" height="2.77" transform="translate(69.9 3.61) rotate(-180)"/>
        <rect class="cls-13" x="30.8" y="3.19" width="2.77" height="2.77" transform="translate(64.36 9.15) rotate(-180)"/>
        <rect class="cls-13" x="28.03" y="5.96" width="2.77" height="2.77" transform="translate(58.82 14.69) rotate(-180)"/>
        <rect class="cls-13" x="25.26" y="8.73" width="2.77" height="2.77" transform="translate(53.29 20.23) rotate(-180)"/>
      </g>
      <rect class="cls-13" x="28.03" y=".42" width="2.77" height="2.77" transform="translate(58.82 3.61) rotate(-180)"/>
      <rect class="cls-13" x="25.26" y="3.19" width="2.77" height="2.77" transform="translate(53.29 9.15) rotate(-180)"/>
      <rect class="cls-13" x="22.49" y="5.96" width="2.77" height="2.77" transform="translate(47.75 14.69) rotate(-180)"/>
      <rect class="cls-13" x="22.49" y=".42" width="2.77" height="2.77" transform="translate(47.75 3.61) rotate(-180)"/>
    </g>
    <g>
      <path class="cls-23" d="m37.28,25.89s.52-1.27,2.05-1.13c1.6.15,3.15,2.17,4.61,1.75,1.46-.42,1.28-1.33,1.28-1.33,0,0,.53,1.32-1.28,2.42-1.81,1.11-4.27-1.69-6.33-.86l-.33-.86Z"/>
      <path class="cls-2" d="m37.28,25.89s.52-1.54,2.23-1.68c1.72-.13,2.72,2.04,4.03,1.68"/>
      <path class="cls-23" d="m33.34,28.32s-.61-2.52,1.5-3.03c2.11-.51,3.06.73,3.42,2.1s-.54,3.28-2.46,2.96c-1.91-.32-2.39-1.44-2.47-2.04Z"/>
      <path class="cls-11" d="m32.56,32.24c-1.74-.81-4.02-2.58-3.98-3.22s1.79-4.97,1.79-4.97c0,0,.23-.06.4-.19.17-.13.39-1.72.13-1.81-.26-.09-1.12-.22-1.33-.22s-.13,1.42-.04,1.77c0,0-2.78,3.87-2.59,5.73.18,1.85,4.49,5.08,6,5.53,1.51.46-.37-2.61-.37-2.61Z"/>
      <polygon class="cls-11" points="51.41 53.33 50.91 52.28 49.37 52.8 47.96 53.27 48.34 54.61 49.97 53.93 51.41 53.33"/>
      <path class="cls-20" d="m50.74,52.09c-.11.06.64,1.43.64,1.43,0,0,1.3.46,1.9,1.21.6.75.88.04.44-.91-.45-.95-.79-1.67-1.1-2.35-.32-.67-.69.02-1.88.61Z"/>
      <path class="cls-10" d="m51.86,54.32c-.08-.06-.14-.18-.18-.3,0,.14-.03.28-.11.32-.05.03-.1.01-.16-.04-.06-.05-.09-.11-.09-.18-.01-.23.26-.51.28-.52,0,0,0,0,0,0h0s0,0,0,0h0s0,0,0,0h0s0,0,0,0h0s0,0,0,0h0s0,0,0,0c0,0,0,0,0,0,0,0,0,0,0,0h0s0,0,0,0h0s.02,0,.02,0h0s0,0,0,0h0s.01,0,.02,0c.09.07.53.45.48.64,0,.04-.04.09-.14.11-.01,0-.02,0-.03,0-.03,0-.07-.01-.1-.03Zm.05-.07s.05.02.07.02c.06-.01.07-.04.07-.04.02-.09-.18-.32-.36-.48.04.18.12.44.22.51Zm-.51-.14s.02.09.06.12c.02.01.05.04.07.03.06-.03.08-.29.06-.54-.08.1-.2.26-.19.39Z"/>
      <polygon class="cls-6" points="50 53.92 49.4 52.78 47.98 53.26 48.35 54.61 50 53.92"/>
      <g>
        <path class="cls-10" d="m33.34,46.36c.65,2.8,3.53,12.34,8.02,11.98,4.49-.36,7.78-2.83,7.87-3.95s-.26-1.75-1.38-1.75-4.4,1.01-5.84.9c-1.43-.1-2.77-6.18-2.77-6.18l-5.91-1Z"/>
        <path class="cls-19" d="m33.34,46.36c.65,2.8,3.53,12.34,8.02,11.98,4.49-.36,7.78-2.83,7.87-3.95s-.26-1.75-1.38-1.75-4.4,1.01-5.84.9c-1.43-.1-2.77-6.18-2.77-6.18l-5.91-1Z"/>
      </g>
      <polygon class="cls-11" points="21.89 66.37 22.95 66.83 23.76 65.43 24.51 64.14 23.34 63.39 22.57 64.97 21.89 66.37"/>
      <path class="cls-20" d="m23.21,66.86c.05-.12-1.43-.65-1.43-.65,0,0-1.27.52-2.22.35-.95-.17-.69.55.27.97.96.42,1.7.73,2.38,1.03.68.3.51-.47,1-1.7Z"/>
      <path class="cls-10" d="m20.75,66.17s-.03-.1.03-.18c.03-.04.07-.06.12-.06.1-.01.22.04.34.1-.09-.11-.16-.23-.13-.31.02-.05.07-.08.15-.08.08,0,.14.02.19.08.16.17.14.55.14.57h0s0,.01,0,.02h0s0,0,0,0h0s0,0,0,.01c0,0,0,0,0,.01h0s-.03.03-.04.03h-.02s-.06-.02-.11-.02c-.21,0-.6-.03-.68-.18Zm.16-.16s-.05.01-.06.03c-.04.05-.03.07-.02.08.04.08.34.12.59.12-.14-.1-.35-.24-.49-.24,0,0-.01,0-.02,0Zm.35-.36s-.06.03-.07.05c-.02.07.13.3.31.47,0-.12-.02-.34-.11-.44-.03-.03-.07-.09-.12-.09h0Z"/>
      <polygon class="cls-6" points="22.55 65 23.75 65.46 24.5 64.15 23.33 63.39 22.55 65"/>
      <g>
        <path class="cls-10" d="m38.76,40.82s2.49,3.7,1.98,6.46c-.6,3.26-8.45,6.93-10.59,8.55-2.14,1.62-3.14,7.74-5.81,8.92l-1.45-.52s-.74-1.02-.19-2.75c2.32-7.28,4.23-10.75,10.63-15.11,0,0-.42-3.53-.24-5.31l5.67-.23Z"/>
        <path class="cls-7" d="m38.76,40.82s2.49,3.7,1.98,6.46c-.6,3.26-8.45,6.93-10.59,8.55-2.14,1.62-3.14,7.74-5.81,8.92l-1.45-.52s-.74-1.02-.19-2.75c2.32-7.28,4.23-10.75,10.63-15.11,0,0-.42-3.53-.24-5.31l5.67-.23Z"/>
        <path class="cls-20" d="m23.67,64.5l.36.13c.81-1.03,1.47-2.89,2.16-4.84.74-2.07,1.5-4.2,2.39-5.05.62-.59,2.01-1.52,3.61-2.6,3.27-2.2,6.98-4.69,7.23-6.21.26-1.62-.56-3.92-1.06-5.1l-.38.02c.47,1.11,1.34,3.46,1.09,5.03-.22,1.37-4.18,4.03-7.07,5.97-1.62,1.09-3.01,2.02-3.66,2.63-.96.91-1.7,2.99-2.48,5.19-.68,1.9-1.38,3.87-2.19,4.83Z"/>
        <path class="cls-14" d="m33.34,46.36s1.31-.86,2.96-1.93l-2.41.96s-.79-1.67-.84-3.47c-.02,1.86.29,4.44.29,4.44Z"/>
      </g>
      <path class="cls-20" d="m38.76,40.82l-5.71.58s-1.36-5.24-1.4-9.64c0,0,2.19.71,4.15.47s3.7-1.26,3.7-1.26c0,0-.92,5.74-.75,9.85Z"/>
      <path class="cls-11" d="m35.24,33.38c1.36-.35,1.7-1,1.7-1-.98-.72-.44-2.24-.44-2.24l-1.62.52c.08.27.13.5.15.69.14,1.01-.31,1.08-.31,1.08-.22.58.52.95.52.95Z"/>
      <path class="cls-6" d="m34.88,30.66c.08.27.13.5.15.69,1.12-.14,1.47-1.21,1.47-1.21l-1.62.52Z"/>
      <g>
        <path class="cls-11" d="m35.21,25.9c-1.46.11-1.87.92-1.87,2.43,0,1.88.51,3.19,2.3,2.65,2.43-.72,1.98-5.25-.44-5.08Z"/>
        <path class="cls-18" d="m34.28,28.18s-.17.39-.38.63c0,0,.14.19.4.14l-.02-.77Z"/>
        <g>
          <path class="cls-23" d="m35.16,27.99c0,.12.08.21.16.21.08,0,.14-.1.13-.22,0-.12-.08-.21-.16-.21-.08,0-.14.1-.13.22Z"/>
          <path class="cls-23" d="m35.33,27.77l-.27-.09s.14.21.27.09Z"/>
        </g>
        <g>
          <path class="cls-23" d="m33.67,28.04c0,.12.08.21.16.21.08,0,.14-.1.13-.22,0-.12-.08-.21-.16-.21-.08,0-.14.1-.13.22Z"/>
          <path class="cls-23" d="m33.84,27.82l-.27-.09s.14.21.27.09Z"/>
        </g>
        <path class="cls-1" d="m35.1,26.99s.41-.08.65.17"/>
        <path class="cls-3" d="m34.04,27s-.26-.08-.57.16"/>
        <path class="cls-23" d="m34.55,29.5c.1.17.21.49.21.49.03,0,.06,0,.09-.02.42-.07.59-.25.65-.42.03-.09.03-.19.02-.26-.01-.09-.04-.14-.04-.14-.2.17-.59.27-.8.31-.09.02-.14.03-.14.03Z"/>
        <path class="cls-13" d="m34.69,29.48l.06.14c.4-.07.67-.17.77-.31-.01-.09-.04-.14-.04-.14-.2.17-.59.27-.8.31Z"/>
        <path class="cls-18" d="m34.85,29.98c.42-.07.59-.25.65-.42-.14.03-.31.08-.45.17-.11.07-.17.16-.2.24Z"/>
        <path class="cls-23" d="m36.98,28.24s-.77-1.15-.73-2.08c0,0-2.97-.97-2.9,1.97,0,0-.47-2.58,2.03-2.82,2.49-.24,2.75,3.42,1.54,4.61,0,0,.54-.96.06-1.68Z"/>
        <path class="cls-11" d="m36.76,28.56c0-.24.21-.65.65-.63.45.02.74.93-.37,1.23-.16.04-.26-.11-.28-.6Z"/>
      </g>
      <path class="cls-11" d="m39.52,30.97s-1.02,1.72-.47,3.59c0,0,3.95-4.39,4.3-5.39s-2.21-6.71-2.21-6.71c0,0,.43-1.2.34-1.47s-1.2-.89-1.47-.71-.18,2.14-.04,2.41l.13.27s1.37,5.17,1.2,5.55c-.17.38-1.78,2.48-1.78,2.48Z"/>
      <path class="cls-23" d="m34.41,25.89s1.56,2.34,3.63,1.96c0,0,.1-1.77-1.29-2.16s-2.35.2-2.35.2Z"/>
      <path class="cls-3" d="m34.69,25.89s-.65.98,1.12,1.62"/>
      <path class="cls-3" d="m34.01,25.82s-.75.69-1.06-.3"/>
      <path class="cls-10" d="m32.63,39.56l-.16-.27s.2-.06.54-.14c-.14-1-.59-4.77.5-7.22l.2.16s-.51.77-.56,2.3l3.78-.02s.43-2.12.97-2.77l.14.06s-1.29,3.23-.8,7.12c.58.03,1.18.11,1.77.25l-.14.27s-1.44-.19-3.2-.13l-1.99.18c-.36.06-.71.13-1.06.22Z"/>
      <path class="cls-16" d="m32.63,39.56l-.16-.27s.2-.06.54-.14c-.14-1-.59-4.77.5-7.22l.2.16s-.51.77-.56,2.3l3.78-.02s.43-2.12.97-2.77l.14.06s-1.29,3.23-.8,7.12c.58.03,1.18.11,1.77.25l-.14.27s-1.44-.19-3.2-.13l-1.99.18c-.36.06-.71.13-1.06.22Z"/>
      <g>
        <path class="cls-20" d="m34.88,35.87c0-.2.05-.36.15-.47.1-.11.25-.16.44-.16s.34.05.44.16c.1.11.15.26.15.47v.46c0,.19-.04.33-.11.42-.07.1-.18.15-.33.15-.17,0-.29-.07-.36-.22v.46c0,.12.02.2.06.24.04.04.09.06.16.06.06,0,.11-.02.15-.06.04-.04.06-.1.06-.19v-.09h.37v.06c0,.2-.05.36-.15.47-.1.11-.24.16-.44.16-.2,0-.36-.06-.45-.17-.1-.11-.15-.27-.15-.48v-1.28Zm.74.61s.06-.1.06-.19v-.45c0-.09-.02-.15-.06-.19-.04-.04-.09-.05-.15-.05s-.11.02-.15.05c-.04.04-.06.1-.06.19v.45c0,.09.02.15.06.19.04.04.09.06.15.06s.11-.02.15-.06Z"/>
        <path class="cls-20" d="m33.47,35.87c0-.2.05-.36.15-.47.1-.11.25-.16.44-.16s.34.05.44.16c.1.11.15.26.15.47v.46c0,.19-.04.33-.11.42-.07.1-.18.15-.33.15-.17,0-.29-.07-.36-.22v.46c0,.12.02.2.06.24.04.04.09.06.16.06.06,0,.11-.02.15-.06.04-.04.06-.1.06-.19v-.09h.37v.06c0,.2-.05.36-.15.47-.1.11-.24.16-.44.16-.2,0-.36-.06-.45-.17-.1-.11-.15-.27-.15-.48v-1.28Zm.74.61s.06-.1.06-.19v-.45c0-.09-.02-.15-.06-.19-.04-.04-.09-.05-.15-.05s-.11.02-.15.05c-.04.04-.06.1-.06.19v.45c0,.09.02.15.06.19.04.04.09.06.15.06s.11-.02.15-.06Z"/>
      </g>
    </g>
    <g>
      <path class="cls-20" d="m21.3,37.66c.26-.08,4.98-2.06,11.1-.2,1.59.48,3.28,1.09,4.91,1.68.44.16.88.32,1.33.48.25.09.69.26.72.51l-.4.96c-.82-.29-1.24-.44-2.08-.75-1.61-.58-3.28-1.19-4.84-1.66-4.27-1.29-7.87-.57-9.42-.11l-.35-.22.17-.3h-.47s.47-.38.47-.38h-1.13Z"/>
      <path class="cls-20" d="m39.2,41.36s-2.16.1-2.85.49l-.02-1.05s.01-.06.21-.07c.67-.01,2.13-.14,2.47-.32.78-.41-.36-.79-.36-.79,0,0,.72.23.7.5,0,0-.21.79-.15,1.24Z"/>
      <path class="cls-7" d="m39.2,41.36s-2.16.1-2.85.49l-.02-1.05s.01-.06.21-.07c.67-.01,2.13-.14,2.47-.32.78-.41-.36-.79-.36-.79,0,0,.72.23.7.5,0,0-.21.79-.15,1.24Z"/>
      <path class="cls-20" d="m36.14,41.89c-.02.11.04.21.14.24.62.18,1.29.26,2,.26,2.9,0,6.54-1.32,10.34-2.69,1.61-.58,3.28-1.19,4.84-1.66,4.27-1.29,7.87-.57,9.42-.11l.35-.22-.17-.3h.47s-.47-.38-.47-.38h1.15s0,0,0,0c-.26-.08-4.99-2.06-11.11-.2-1.59.48-3.28,1.09-4.91,1.68-4.42,1.6-9.35,2.97-11.7,2.36-.15-.04-.13-.08-.1-.1.03-.01.06-.02.06-.02-.11,0-.13.05-.14.09,0,.23-.12.77-.19,1.06Z"/>
    </g>
  </g>
</svg>