<?xml version="1.0" encoding="UTF-8"?>
<svg id="Layer_2" data-name="Layer 2" xmlns="http://www.w3.org/2000/svg" viewBox="0 0 42.35 70">
  <defs>
    <style>
      .cls-1 {
        fill: #e1b698;
      }

      .cls-1, .cls-2, .cls-3, .cls-4, .cls-5, .cls-6, .cls-7, .cls-8, .cls-9 {
        stroke-width: 0px;
      }

      .cls-2 {
        fill: #282462;
      }

      .cls-3 {
        fill: #052f33;
      }

      .cls-4 {
        fill: #003e4f;
      }

      .cls-5 {
        fill: #fff;
      }

      .cls-6 {
        fill: #deae8b;
      }

      .cls-7 {
        fill: #ca987a;
      }

      .cls-8 {
        fill: #e2007d;
      }

      .cls-9 {
        fill: #00a2bd;
      }
    </style>
  </defs>
  <g id="Layer_1-2" data-name="Layer 1">
    <g>
      <path class="cls-6" d="m20.96,14.8c-.52-.56-1.32-1.03-2.11-.86-.11.02-.21.06-.3.1-.66.24-1.07,1.01-1.05,1.71.01.43.15.91.45,1.23.28.3.69.3,1.04.42-.09.51-.09,1.03-.12,1.54-.02.32-.01.6.25.82.47.39,1.47.57,1.86,0,.22-.32.15-.54.17-1.05.02-.37-.19-1.01.48-1.51.16-.12.27-.34.24-.52-.12-.85-.38-1.31-.92-1.88Z"/>
      <path class="cls-8" d="m21.73,15.12c-.02-.09-.1-.12-.17-.16-.27-.15-.57-.34-.87-.44-.05-.03-.13.02-.09.08.17.26.32.52.56.81.1.12.24.26.37.11.05-.06.21-.31.2-.4Z"/>
      <path class="cls-3" d="m19.15,14.13c.29-.16.08-.54-.21-.5-.96.14-2.02.58-2.21,1.58-.01.05-.06.09-.12.07-.22-.05-.53.08-.65.22-.19.24-.21.69-.01.95.2.25.57.25.8.05.02-.02.04-.03.06-.06.04-.04.11-.04.14.01.1.18.23.34.39.48.18.16.37.28.59.37.22.09.64.09.79.27.02.03.05.05.08.06,0,0,.01.02.02.03.12.16.41.12.4-.11-.04-.63-.75-1-.8-1.29-.06-.34.31-.42.45-.68.26-.47-.27-1.15.28-1.46Z"/>
      <path class="cls-8" d="m19.16,16.49c-.12-.14-.25-.29-.4-.4-.11-.14-.24-.29-.4-.24-.17.05-.31.23-.29.41.05.49.76.54,1.08.33.03-.02.04-.06.01-.09Z"/>
      <path class="cls-8" d="m26.35,15.06s-.04,0-.04.02c.02.14.05.27.09.4,0,0-.02.01-.02.02,0,.05-.01.11-.02.16,0-.02-.02-.04-.03-.06,0-.01-.01-.02-.02-.02,0-.01-.02-.03-.04-.03-.34-.08-.78-.1-1.11.07-.01-.02-.04-.02-.06,0,0,.02-.01.03-.02.04,0,0,0,0-.01,0,0,0-.01.02,0,.03-.01.02-.02.05-.04.07-.02-.04-.04-.08-.06-.13,0,0,0-.01-.02-.02-.01-.07-.02-.13-.06-.19,0-.02-.01-.04-.02-.06,0-.02-.04-.03-.06,0,0-.01,0-.02,0-.03,0-.02-.04-.03-.05,0-.08.29-.05.61-.11.91-.04.2-.1.39-.17.58,0,0,0,0,0,0-.52.85-1.15,1.62-1.94,2.26-.13.1-.21.24-.37.26-.11.01-.58-.04-.59-.04-.2-.02-.22-.25-.23-.44,0-.13-.19-.14-.19-.01,0,.28-.26.4-.36.61-.01.03-.03.07-.04.11-.03.1-.18.11-.22,0,0,0,0,0,0,0-.01-.04-.05-.07-.1-.07-.61,0-1.16-.26-1.54-.73-.06-.07-.16,0-.14.08.06.25-.18.42-.41.46,0,0,0,0,0,0-.34.07-.77.19-1.33.4-.02,0-.03.02-.05.03-.98.28-1.24,1.64-1.39,2.51-.11.64-.03,1.2.13,1.83.13.52.15,1.01.11,1.52,0,0,0,0,0,.01-.07.23-.16.45-.32.62-.22.23-.48.24-.7.12-.01-.02-.03-.02-.04-.03-.1-.07-.2-.16-.27-.28-.05-.08-.2-.03-.16.07.13.36.29.64.78.77.1.03.55.08.97-.45.32-.4.52-.88.76-1.34.19-.35.38-.72.53-1.1.05-.11.21-.09.23.03.16,1.07.28,1.95.38,2.25,0,0,0,.01,0,.02-.08.34.26.97.52.65.23-.28.99-.09,1.31-.06.48.05.95.13,1.42.23.91.2,1.54.42,2.37.83.21.1.35-.06.5-.29.31-.46,0-2.1-.29-4.19-.06-.43-.02-.87.1-1.29.34-1.23,1.34-2.14,1.9-3.25.11-.22.53-.9.71-1.58.07-.28.15-.6.15-.92,0,0,0,0,0,0,.08-.51,0-1.08-.32-1.4Z"/>
      <path class="cls-8" d="m32.49,26.06c-.75.07-1.74.3-1.71.29-1.51,3.54-2.98,7.09-4.42,10.66-1.45,3.6-2.86,7.22-4.24,10.86-.78,2.04-6.84,18.45-7.59,20.5-.02.04.02.07.06.08.81.08,1.65.13,2.45-.08.79-.21,2.66-4.25,2.99-5,.43-1,4.29-12.81,4.66-13.83.39-1.06.77-2.12,1.15-3.18,1.52-4.27,2.99-8.57,4.4-12.88.79-2.44,1.57-4.88,2.33-7.33.01-.04-.02-.1-.07-.09Z"/>
      <path class="cls-2" d="m17.79,62.94c-.33.03-.65.06-.98.1-.04,0-.09.03-.08.08,0,.08.01.13.02.21,0,.01,0,.02.01.03-.05.63.02,1.29.03,1.92,0,.07.11.11.15.04.34-.75.64-1.51.93-2.28.02-.05-.03-.11-.08-.1Z"/>
      <path class="cls-2" d="m19.93,57.11c-.33.03-.65.06-.98.1-.04,0-.09.03-.08.08,0,.08.01.13.02.21,0,.01,0,.02.01.03-.05.63.02,1.29.03,1.92,0,.07.11.11.15.04.34-.75.64-1.51.93-2.28.02-.05-.03-.11-.08-.1Z"/>
      <path class="cls-2" d="m22.14,51.13c-.33.03-.65.06-.98.1-.04,0-.09.03-.08.08,0,.08.01.13.02.21,0,.01,0,.02.01.03-.05.63.02,1.29.03,1.92,0,.07.11.11.15.04.34-.75.64-1.51.93-2.28.02-.05-.03-.11-.08-.1Z"/>
      <path class="cls-4" d="m24.35,45.62c-.12-.14-.32-.45-.54-.43-.22.02-.29.28-.42.43-.02-.03-.07-.03-.07.02.04.51.21,1.02.34,1.51.02.06.11.07.14.02.18-.33.36-.66.54-1,.11-.2.18-.35.02-.55Z"/>
      <path class="cls-2" d="m22.25,49.99c-.61-.01-1.23-.06-1.84-.11,0,0-.01,0-.02,0-.01-.05-.02-.1-.04-.15-.04-.13-.23-.14-.27,0-.14.49-.01,1.04-.04,1.54,0,.12.1.2.21.21.32.03.64,0,.96,0,.2,0,.42,0,.61-.08.44-.2.37-.63.62-.96.14-.18.06-.45-.19-.45Z"/>
      <path class="cls-6" d="m22.85,49.55c-.25-.1-.5-.19-.72-.35-.38-.28-.42-.64-.39-1.08.04-.6.15-1.21.11-1.82,0-.15-.22-.19-.26-.04-.02.07-.03.14-.05.21-.48-.13-1.05-.21-1.55-.18-.05-.11-.24-.08-.24.06.02,1.15.27,2.32.42,3.47.01.08.05.14.12.16.75.26,1.6.23,2.37.13.08-.01.13-.06.17-.11.2-.02.26-.36.02-.45Z"/>
      <path class="cls-2" d="m24.61,44.23c-.61.02-1.12-.11-1.66-.38.05-.07-.02-.19-.12-.17-.59.13-.64,1.26-.7,1.73,0,.05.04.12.08.14.49.24,1.2.41,1.74.26.58-.16.6-.81.84-1.25.08-.14-.02-.33-.19-.33Z"/>
      <path class="cls-6" d="m25.47,41.05c.06-.19-.13-.35-.31-.31-.5.12-.94.11-1.44-.01-.12-.03-.21.02-.27.1-.05,0-.11.03-.14.09-.31.8-.05,2.14-.71,2.77-.09.08-.07.25.04.31.6.29,1.26.44,1.92.56.11.02.23-.03.26-.15.13-.49.54-.86.4-1.4-.1-.4-.27-.56-.14-1,.1-.33.28-.63.39-.96Z"/>
      <path class="cls-2" d="m27.66,33.27c-.56-.96-1.67-1.48-2.63-2.04-.3-.14-.6-.28-.9-.41-.46-.2-1.08-.39-1.4-.81-.02-.03.02-.06.05-.04.31.3.78.44,1.21.58.02-.8.09-2.84.09-2.87,0-.15-1.2-.95-2.99-1.25-.99-.17-2.15-.3-3.14-.13-.12.02-1.15,2.76-1.1,3.93.04,1.15.55,2.25,1.38,3.04.4.38.86.69,1.35.94-.2,4.26-.43,12.01-.43,12.01,0,0,.62.25,1.44.32.73.06,1.58.12,1.58.12,0,0,.08-.95.19-1.57.26-1.4.45-2.79.63-4.19-.15-.33.07-1.24.1-1.38.15-.65.25-1.31.38-1.96.16-.77.17-1.54.28-2.32.01-.08.14-.06.13.02-.02,1.28-.32,2.5-.54,3.75-.05.31-.48,1.66-.16,1.88.53.03,2.42.03,2.89-.06.04,0,.32-.09.36-.22.49-1.51.93-3.04,1.31-4.59.21-.86.52-2.04-.11-2.76Z"/>
      <path class="cls-1" d="m15.79,24.51c-.24-1.09-.66-2.2-.39-3.32,0-.03.08-.16.17-.34.05-.52.04-1.02.02-1.55,0,0-.01-.02-.02-.03-.1-.11-.29-.13-.43-.13-.22-.01-.5.02-.71.13,0-.04-.02-.09-.03-.13-.01-.09-.02-.19-.03-.29,0-.1,0-.2,0-.3,0-.12.02-.23.04-.35.02-.1.08-.25-.02-.33-.06-.05-.12-.02-.16.03-.04.05-.06.1-.07.17-.02.11-.17.98-.05,1.79.01.09.06.82.11,1.07,0,.02,0,.04,0,.06-.05.91-.2,1.81-.28,2.72-.07.79-.09,1.73.32,2.44.27.46.89.81,1.39.45.25-.18.31-.5.31-.79,0-.43-.08-.87-.17-1.29Z"/>
      <path class="cls-2" d="m16.15,18.34c-.33-.42-1.11-.53-1.49-.11-.02.02-.02.04,0,.06-.12.11-.21.24-.27.39-.17.45.05.99.46,1.23.42.25,1.01.13,1.32-.24.32-.37.3-.96,0-1.33Z"/>
      <path class="cls-1" d="m14.98,17.87c-.11-.07-.22-.02-.31.07-.02.02-.04.06,0,.08.13.08.23.2.26.36.02.07-.01.19.05.26.14.14.2-.13.2-.21,0-.19-.03-.44-.2-.55Z"/>
      <path class="cls-7" d="m14.98,18.64c.03-.27-.04-.58-.22-.65-.24-.1-.41.22-.42.42,0,.06-.02.23.01.31.01.02.03-.11.19-.28.03-.04.07-.06.09-.05.03.01.04.06.04.09,0,.03,0,.07,0,.1,0,.07.02.15.06.2.04.05.12.07.17.05.06-.03.06-.16.06-.19Z"/>
      <path class="cls-7" d="m15.63,17.87c-.12-.26-.4-.18-.49.04,0,0-.01.05-.02.06,0,.03.16-.02.19,0,.15.09.07.31.08.48,0,.08.03.2.15.2.1,0,.13-.21.14-.3.03-.16.02-.34-.05-.49Z"/>
      <path class="cls-7" d="m16.08,18.66s-.12-.09-.19,0c-.07.1.01.31.01.41,0,.16-.04.29-.09.43-.02.06-.06.11-.11.14-.05.03-.1.07-.15.1-.21.14-.35.33-.37.59-.02.2.05.48.28.52.14.03.22-.05.29-.15.21-.29.37-.66.47-.98.11-.35.12-.77-.14-1.05Z"/>
      <path class="cls-5" d="m21.58,23.01c-.18-.93-.42-1.88-.8-2.75-.01-.03-.07,0-.06.02.25.9.53,1.78.7,2.7.09.48.16.97.21,1.46.05.47.05.95.11,1.43,0,.07.11.08.12,0,.07-.93-.11-1.95-.29-2.86Z"/>
      <path class="cls-6" d="m40.76,65.97c.02-.11.07-.27.05-.38-.07-.27-.41-.22-.62-.22-.24,0-.85-.1-1.05.1-.1.1.06.62,0,1.3-.02.22-.03.33.17.44.16.09.4.19.65.22.02.01.05.02.08.01.31.03.61-.03.74-.3.03-.05.01-.12-.02-.17,0-.16-.03-.83,0-1.01Z"/>
      <path class="cls-8" d="m40.83,66.66c-.3-.12-.16.43-1.04.39-.21,0-.51-.51-.73-.6-.03-.01-.06,0-.07.03-.28.62-1.98.89-2.39,1.11-.42.22-.76.61-.68,1,.01.06,1.57.35,2.78.32,1.54-.03,2.35-.28,2.36-.32.08-.38.03-.91-.03-1.3-.03-.23-.14-.62-.2-.65Z"/>
      <path class="cls-2" d="m40.97,68.57c-.4.2-.86.2-1.3.23-.43.03-.85.05-1.28.06-.2,0-.41,0-.61,0-.07-.23-.24-.67-.37-.88-.09-.14-.37-.43-.54-.45-.09-.01-.21.03-.31.09-.28.13-.51.38-.62.66-.04.1-.12.3-.08.43-.01.03,0,.07.03.09.36.19.82.22,1.23.27.47.05.94.06,1.41.05.47,0,.94-.04,1.42-.07.4-.03.79-.06,1.16-.25.15-.07.02-.3-.13-.22Z"/>
      <path class="cls-2" d="m41.1,67.07c-.03-.14-.11-.56-.34-.5-.09.02-.13.13-.17.19,0,.01-.02.02-.02.03-.13.12-.29.2-.46.26-.05.02-.06.1,0,.11.32.07.64.06.95-.02.03,0,.05-.04.04-.07Z"/>
      <path class="cls-6" d="m38.09,66.89c.02-.11.07-.27.05-.38-.07-.27-.41-.22-.62-.22-.24,0-.85-.1-1.05.1-.1.1.06.62,0,1.3-.02.22-.03.33.17.44.16.09.4.19.65.22.02.01.05.02.08.01.31.03.61-.03.74-.3.03-.05.01-.12-.02-.17,0-.16-.03-.83,0-1.01Z"/>
      <path class="cls-8" d="m41.22,39.91c-.06-.93-.86-2.02-1.99-2.17-.01,0-.03,0-.04,0-.06-.04-.14-.08-.21-.11-.49-.18-.81-.31-1.32-.44-.55-.14-1.36-.22-1.93-.27-1.13-.11-1.95-1.03-2.09-1.17-.13-.14-.44-.63-1.16-.26-.64.33-.42,1.01-.28,1.28.23.48.6.97,1.13,1.45.35.32,1.2.82,1.54,1.16.44.45.69.77.61,1.42-.05.23-.28.81-.43,1.29-.09-.04-.21-.06-.36-.1-.9-.22-1.39,1.1-.86,1.72.14.16.5.37.68.44.05.02.69.13.87.12,1.43-.13,2.89-1.05,3.43-1.55.11-.1.22-.21.32-.32h0s0,0,0,0c.18-.19.35-.38.53-.57,0,0,0,0,0,0,.05-.05.1-.1.15-.15.02-.01.03-.03.05-.04.04-.04.08-.08.13-.11.02-.01.03-.03.05-.04.06-.05.12-.1.18-.14,0,0,0,0,.01,0,0,0,0,0,0,0,0,0,0,0,0,0,0,.02.01.05.02.07-.45.47-.86.99-1.34,1.44-.44.42-.96.74-1.5,1.02-.54.28-1.12.52-1.72.6-.24.03-.47,0-.71-.02-.13-.01-.23-.02-.33,0-.07.01-.13.08-.14.15-.12.76-.21,1.53-.25,2.31-.03.57.42,1.02.95,1.13,1.49.31,2.41.34,3.6-.29,1.15-.61,1.31-2.72,1.54-3.78.29-1.33.97-2.67.88-4.04Z"/>
      <path class="cls-5" d="m37.6,38.04c-.01-.22-.02-.44-.04-.66,0,0,0-.02,0-.03,0,0,0,0,0,0,.03-.03,0-.14-.05-.11-.01,0-.07.07-.08.09-.31.34-.31.77-.27,1.2,0,.08.1.11.15.04.1-.14.21-.28.32-.41.03-.03,0-.09-.02-.11Z"/>
      <path class="cls-6" d="m40.35,32.95c-1.48-.11-2.63,1.07-3.43,2.08-.33.41-.36.7-.04,1.12.16.21.33.4.51.6.07.08.11.18.12.29.01.45.04.9.08,1.34.02.16.06.3.21.39.19.11.46.13.67.16.44.05.94,0,1.25-.33,0,0,.01-.01.02-.02,0-.02,0-.03,0-.05.02.04.05.08.08.12.12.18.4.02.31-.16-.19-.38-.28-.8-.21-1,.25-.72,2.07-.45,2.28-1.89.25-1.71-.57-2.55-1.84-2.64Z"/>
      <path class="cls-8" d="m35.67,44.45c-.24.03-.47,0-.71-.02-.04,0-.08,0-.12,0,.06.03.11.05.11.05.19.06.42.06.61.02.03,0,.07-.02.14-.05,0,0-.02,0-.02,0Z"/>
      <path class="cls-8" d="m38.23,33.68c-.17.09-.34.18-.52.27-.22.08-.44.16-.63.27-.25.13-.11.31.05.46.25.23.33.19.55-.05.22-.24.61-.51.67-.84.01-.07-.06-.13-.13-.1Z"/>
      <path class="cls-5" d="m35.41,53.49s0,.01,0,.01,0-.01,0-.01Z"/>
      <path class="cls-2" d="m40.81,62.69c-.26-1.86-.79-3.68-.98-5.54-.2-1.95-.15-3.53.17-5.43.04-.24.15-.76.05-.79-.07-.02-.15.49-.2.69-.23.98-.39,1.98-.54,2.98-.16,1.06-.3,2.13-.38,3.2-.07,1-.07,2.01-.08,3.01,0,.04-.03.07-.07.07,0,0-.02,0-.03,0,0,0,0,0,0,0,0,0-.02,0-.02-.01,0,0,0,0,0,0,0,0,0-.01-.01-.02,0,0,0,0,0,0,0,0,0-.02,0-.03,0-.21,0-.41,0-.62,0-.19,0-.38,0-.57.03-1.61.15-3.2.39-4.8.15-1,.29-2.01.53-3,.11-.46.23-.92.32-1.39.06-.3.06-.53.06-.83,0-.34-.03-.74-.12-1.08-.05-.32-.27-1.07-.37-1.37-.02-.06-.09-.1-.15-.07-.44.2-1.39.52-2.33.68-.95.15-2.09-.06-2.49-.15-.08-.02-.16.04-.16.12-.04.44-.04,1.71.06,2.58.01.37.28,4.97.5,6.07.33,1.66.55,3.28.9,4.93.29,1.36.36,3.92.5,5.37,0,.09.08.16.17.16.37.02.98.07,1.26.06.19,0,.39-.01.58-.01.09,0,.17-.07.18-.16.04-.33.13-1.1.16-1.49,0,0,0,0,0,0,0-.07,0-.15.01-.22.03-.62.02-1.24.09-1.86,0,0,0-.01,0-.01,0,0,0,0,0,0,0,0,0,0,0,0,0,0,0,0,0,0,0,0,.02,0,.02.02.07.64.08,1.28.07,1.92,0,.21,0,.42-.02.63,0,.09.08.16.17.13.44-.13.93-.17,1.38-.2.18-.01.36-.02.54-.03.07,0,.13-.06.13-.14-.08-1.09-.22-2.28-.29-2.79Z"/>
      <path class="cls-8" d="m38.16,67.58c-.3-.12-.16.43-1.04.39-.21,0-.51-.51-.73-.6-.03-.01-.06,0-.07.03-.28.62-1.98.89-2.39,1.11-.42.22-.76.61-.68,1,.01.06,1.57.35,2.78.32,1.54-.03,2.35-.28,2.36-.32.08-.38.03-.91-.03-1.3-.03-.23-.14-.62-.2-.65Z"/>
      <path class="cls-2" d="m38.31,69.46c-.4.2-.86.2-1.3.23-.43.03-.85.05-1.28.06-.2,0-.41,0-.61,0-.07-.23-.24-.67-.37-.88-.09-.14-.37-.43-.54-.45-.09-.01-.21.03-.31.09-.28.13-.51.38-.62.66-.04.1-.12.3-.08.43-.01.03,0,.07.03.09.36.19.82.22,1.23.27.47.05.94.06,1.41.05.47,0,.94-.04,1.42-.07.4-.03.79-.06,1.16-.25.15-.07.02-.3-.13-.22Z"/>
      <path class="cls-2" d="m38.43,67.99c-.03-.14-.11-.56-.34-.5-.09.02-.13.13-.17.19,0,.01-.02.02-.02.03-.13.12-.29.2-.46.26-.05.02-.06.1,0,.11.32.07.64.06.95-.02.03,0,.05-.04.04-.07Z"/>
      <path class="cls-8" d="m1.86,65.83c.42.48,1.08,1.19,1.58,1.6.31.25,1.22.83,1.3.85.69.16,1.53.04,2.21-.1.23-.05.25-.33.13-.47-.12-.44-.58-.57-1.08-.55-.22-.87-.78-1.71-1.15-2.52-.09-.2-.33-.27-.5-.11-.45.11-.86,0-1.01-.3-.37-.71-.51.26-.68.36-.16.09-.38.2-.5.35-.18.21-.42.77-.3.91Z"/>
      <g>
        <path class="cls-2" d="m6.96,67.31c-.22-.22-.61-.37-.91-.23-.31.15-.52.69-.57,1.03-.05,0-.1,0-.15,0-.57,0-1-.17-1.43-.53-.36-.3-.7-.64-1.03-.97-.33-.34-.63-.72-.99-1.03-.08-.06-.19.02-.14.11.27.45.68.83,1.05,1.2.39.39.79.81,1.24,1.12.84.58,1.99.38,2.94.19.09,0,.17-.03.22-.08.21-.21-.07-.65-.23-.8Z"/>
        <path class="cls-2" d="m3.89,64.52c-.09-.02-.17-.04-.25-.07-.11-.04-.19-.12-.24-.22-.04-.07-.08-.15-.13-.21-.03-.04-.07-.07-.12-.08,0,0,0,0-.02,0-.11-.03-.18.08-.23.16-.05.08-.08.16-.14.23-.03.04-.08.07-.08.12-.01.13.2.18.28.21.15.06.66.21.96-.03.04-.03.02-.1-.03-.11Z"/>
      </g>
      <path class="cls-3" d="m2,31.78c-.05-.05-.14,0-.12.07,0,.03.02.07.02.1-.02.01-.04.04-.04.07,0,.19.06.36.16.51.03.05.09.05.12.02.01.01.02.02.04.04.06.05.12.02.14-.03,0,0,0,0,.01-.01.06-.27-.16-.58-.34-.76Z"/>
      <path class="cls-6" d="m.61,34.52c.28,1.14,1.34,1.72,2.43,2.01,0,0,0,0,0,.01.02.37-.05.71-.22,1.09-.08.19.18.33.29.15.03-.05.06-.1.08-.15.12.15.41.14.5-.1,0-.02.02-.04.02-.06.09-.01.16-.07.17-.18,0,0,0-.01,0-.02.08,0,.17-.02.24-.11.03-.02.06-.05.08-.09.52-.61,1.11-1.21,1.55-1.86.28-.42.24-.71-.07-1.11-.78-.97-2.02-2.01-3.39-1.86-1.18.13-1.96,1.14-1.69,2.26Z"/>
      <path class="cls-3" d="m3.61,36.04c-.09-.18-.26-.26-.43-.33-.25-.11-.47-.23-.66-.43-.86-.91-.05-2.22-.64-3.19-.07-.19-.18-.37-.35-.53-.06-.05-.13,0-.12.07.05.2.04.4,0,.58-.05-.17-.14-.31-.29-.44-.07-.06-.16,0-.15.09.04.25.04.49-.02.72,0,0,0-.02,0-.03-.02-.09-.15-.09-.19-.02-.22.42-.39.84-.45,1.26,0,.04-.03.06-.07.07-.04,0-.08.01-.12.02-.1.01-.15.05-.1.11.04.05.08.11.11.17.03.07.06.14.09.22.08.42.14.93.38,1.24.19.23.48.34.76.45.09.06.18.11.27.15.5.24,1.07.38,1.43.83.05.06.13.08.19.02.25-.27.53-.65.34-1.04Z"/>
      <path class="cls-7" d="m12.53,26.76c-.03-.09-.08-.34-.22-.31-.1.02-.1.13-.08.24,0,.22.02.43-.01.65-.04.28-.14.52-.25.78-.05.12-.06.31.11.35.16.03.24-.15.29-.26.21-.45.3-.96.16-1.44Z"/>
      <path class="cls-7" d="m12.86,26.87c-.03-.08-.09-.28-.22-.2-.07.04-.06.16-.03.28-.01.22-.02.44-.07.66-.03.13-.08.25-.13.38-.04.11-.12.21-.15.32-.03.1,0,.21.11.23.17.03.25-.19.31-.31.2-.41.32-.89.18-1.34Z"/>
      <path class="cls-6" d="m13.1,27.34c-.07-.03-.09.03-.1.07-.04.33-.18.62-.31.92-.03.07-.1.1-.17.09,0,0,0,0,0,0-.08-.01-.16-.03-.24-.06-.01,0-.03,0-.04-.01-.11-.04-.17-.16-.14-.27.05-.16.07-.33.1-.49.03-.25.07-.54.03-.79,0-.02,0-.05,0-.07-.02-.07-.09-.12-.17-.09-.08.04-.09.18-.08.3-.02.22-.03.44-.08.65-.04.17-.21.5-.22.52-.32.52-.65,1.02-.68,1.62,0,.07-.02.11-.03.13-.05.12-.1.25-.15.37-.07.19-.16.38-.21.57-.02.02-.03.06-.02.08,0,0,0,0,0,0,0,.03.02.04.04.03.19.08.4.15.6.21.13.04.37.25.39.1.05-.34.07-.49.09-.65.02-.14.04-.28.1-.4.07-.16.74-.78.94-1.25.02-.06.07-.14.09-.22.03-.06.05-.13.07-.18.07-.16.12-.33.17-.5.04-.15.25-.59.02-.68Z"/>
      <path class="cls-4" d="m4.65,62.03c.75-2.15,1.7-4.2,2.26-6.42,0,0,0,0,0-.01-.03-.06-.04-.12-.03-.2.14-.95.34-1.89.53-2.84.08-.38.15-.77.22-1.16.07-.83.12-1.68.33-2.47.06-.22.35-.16.38.04.04.24.06.48.06.73.02.03-.02,1.12-.1,1.63-.04.35-.09.69-.14,1.02-.11.8-.25,1.6-.41,2.39-.05.28-.1.55-.16.83,0,.04-.02.07-.04.1,0,.03-.01.06-.02.09-.49,2.18-1.08,4.55-2.19,6.53-.2.35-.84.14-.7-.26Z"/>
      <path class="cls-4" d="m3.53,61.17c-.11.8-.2,1.6-.25,2.4.24.16.67-.06.59-.42-.14-.67-.29-1.32-.34-1.98Z"/>
      <path class="cls-4" d="m3.8,59.18c.24-.64.56-1.29.47-1.95-.02-.12-.13-.2-.24-.21-.05.72-.13,1.44-.23,2.16Z"/>
      <path class="cls-2" d="m3.78,57.53c0-.06-.08-.08-.1-.03-.36.81-.7,1.76-.83,2.59-.14.89-.02,1.82.16,2.71.01.06.1.06.11,0,.17-1.76.5-3.51.66-5.27Z"/>
      <path class="cls-8" d="m10.53,30.75c-.24.55-1.4,3.19-2.11,4.15-.12.19-.25.39-.37.58-.14.25-.28.51-.41.76-.41.78-.49,1.29-.44,2.34.03.56.16,1.27.27,1.7.13.47.24.95.33,1.42.37,1.86-.06,6.16.08,6.26.56.43,1.31.82,1.99,1.02.26.08.46-.02.56-.18.16-.16.12-.45.09-.66-.05-.33-.12-.66-.22-.98-.57-3.02-2.08-7.47-1.87-9.08.05-.35.28-.63.34-.7.64-.85,1.15-1.78,1.63-2.72.42-.82,1.13-2.56,1.32-3.45,0-.04-.02-.08-.06-.09-.38-.03-.76-.14-1.03-.4-.04-.03-.09-.02-.11.02Z"/>
      <path class="cls-5" d="m7.19,38.32c-.03-.3-.66-.98-.67-.99-.03-.05-2.81-.48-2.9-.46-1.05.18-1.14,4.88-.83,6.19.25,1.05.41,2.5,1.5,3.07,1.13.59,2.41-.18,3.5.28.47.2,1.11-.07,1.06-.63-.12-1.43-1.47-5.64-1.65-7.46Z"/>
      <path class="cls-3" d="m2.95,34.97c-.15-.15-.29-.34-.39-.48-.42-.55-.27-1.25-.58-1.88-.05-.11-.22-.04-.22.07.03.42.07.84.15,1.26-.04-.02-.09.03-.07.08.04.07.08.13.12.2.01.05.02.1.04.15-.02.03-.03.07,0,.11.01.02.02.03.04.05,0,0,0,.01,0,.02-.08-.02-.16.06-.12.15.13.27.91.92,1.04.35,0-.03,0-.06-.03-.09Z"/>
      <path class="cls-8" d="m2.6,35.08c.15-.02.32.07.46.12.17.05.73.24.69.35-.2.54-.98.51-1.29.09-.13-.18-.18-.52.14-.55Z"/>
      <path class="cls-6" d="m5.13,64.7c.06-.13-.14-.24-.2-.11,0,.01-.01.02-.02.04-.01,0-.02-.01-.04-.02,0,0,0-.02,0-.03.03-.1-.09-.17-.17-.14-.04-.07-.14-.11-.2-.05-.02-.07-.1-.11-.17-.09-.04-.06-.12-.08-.18-.04-.02-.08-.11-.12-.18-.09-.06-.03-.14-.02-.17.05,0,.02-.02.04-.03.06,0,0,0,0-.01,0-.05-.1-.22-.09-.25.03-.01.05-.02.1-.03.14,0,0,0-.02,0-.03-.01-.06-.12-.04-.11.02.09.53.05,1.04-.11,1.55-.01.04.02.08.05.09-.03.06,0,.15.09.18.45.16.91.28,1.39.36.08.01.14-.04.16-.11.06,0,.12-.06.09-.14-.18-.52-.17-1.06.04-1.56.02-.04.03-.08.05-.11Zm-1.19,1.4s.04.03.06.04c0,.01,0,.03,0,.04-.02,0-.04-.01-.06-.02,0-.02,0-.04,0-.06Zm.46.09s.02.06.04.1c-.02,0-.03,0-.05-.01,0-.03,0-.06.01-.09Zm.27.07s.01-.01.02-.02c.02.04.04.07.06.11-.03,0-.05,0-.08-.01,0,0,0-.01,0-.02,0-.02,0-.04,0-.05Zm-1.25-.25s.01-.03.02-.05c0,.01.01.02.02.02,0,.02,0,.03,0,.03-.02,0-.03,0-.04,0Z"/>
      <path class="cls-2" d="m8.3,46.2c-.39-.18-1.27-.54-2.44-.58-.5-.02-2.17.02-2.29.4-.56,1.79-.56,2.84-.21,4.69.36,1.86.81,4.6.72,5.58-.26,2.72-.79,5.41-.83,8.14,0,.06.01.12.02.19,0,.05.04.09.09.11.36.14,1.72.52,2.16.6.08.01.15-.04.16-.11.29-1.47.6-2.92,1.04-4.36.49-1.63.65-3.22,1.12-4.85.42-1.45.69-8.73.68-9.47,0-.14-.09-.27-.22-.33Z"/>
      <path class="cls-8" d="m2.14,67.2c.42.48,1.08,1.19,1.58,1.6.31.25,1.22.83,1.3.85.69.16,1.53.04,2.21-.1.23-.05.25-.33.13-.47-.12-.44-.58-.57-1.08-.55-.22-.87-.78-1.71-1.15-2.52-.09-.2-.33-.27-.5-.11-.45.11-.86,0-1.01-.3-.37-.71-.51.26-.68.36-.16.09-.38.2-.5.35-.18.21-.42.77-.3.91Z"/>
      <path class="cls-2" d="m7.24,68.7c-.22-.22-.61-.37-.91-.23-.31.15-.52.69-.57,1.03-.05,0-.1,0-.15,0-.57,0-1-.17-1.43-.53-.36-.3-.7-.64-1.03-.97-.33-.34-.63-.72-.99-1.03-.08-.06-.19.02-.14.11.27.45.68.83,1.05,1.2.39.39.79.81,1.24,1.12.84.58,1.99.38,2.94.19.09,0,.17-.03.22-.08.21-.21-.07-.65-.23-.8Z"/>
      <path class="cls-2" d="m4.17,65.91c-.09-.02-.17-.04-.25-.07-.11-.04-.19-.12-.24-.22-.04-.07-.08-.15-.13-.21-.03-.04-.07-.07-.12-.08,0,0,0,0-.02,0-.11-.03-.18.08-.23.16-.05.08-.08.16-.14.23-.03.04-.08.07-.08.12-.01.13.2.18.28.21.15.06.66.21.96-.03.04-.03.02-.1-.03-.11Z"/>
      <path class="cls-8" d="m5.41,32.69c-.47-.09-1.5-.11-1.53-.11-.06,0-.1.09-.07.13,0,0,.05.05.06.06.41.3.77.67,1.21.94,0,0,.02.01.03.02.01,0,.02.01.03.02.01,0,.02,0,.03,0,.02,0,.05,0,.08,0,.02,0,.05-.01.06-.04.1-.23.11-.72.14-.97,0-.02-.02-.05-.04-.05Z"/>
      <path class="cls-6" d="m33.16,35.38c-.27-.38-.53-.81-.74-1.08-.02-.03-.08-.03-.1,0-.3.31-1.03.86-.68,1.35.06.19.16.35.26.51.11.19.2.39.38.53.23.18.55.21.78.06.21-.08.39-.25.46-.61.04-.21-.12-.44-.35-.76Z"/>
      <path class="cls-8" d="m35.71,24.81c-.55.02-3.23.02-3.27.11-.81,1.92-1.55,3.88-2.31,5.81-.77,1.95-1.54,3.9-2.31,5.85-1.54,3.9-3.09,7.79-4.63,11.69-.81,2.05-7.17,18.9-7.91,20.84-.04.11.04.24.16.24h3.74c.07,0,.14-.05.17-.12.42-1.18,5.26-14.55,5.25-14.55,1.52-3.61,2.97-7.24,4.37-10.9,1.47-3.81,2.89-7.64,4.26-11.49.54-1.52,1.07-3.03,1.59-4.56.4-.91.72-1.86.95-2.83.01-.05-.02-.1-.08-.1Z"/>
      <path class="cls-7" d="m11.53,28.46c0-.2.05-.37.13-.56.02-.04.06-.1.05-.14-.06-.23-.27.05-.38.23-.19.31-.32.66-.26,1.02.05.27.33.39.45.09.08-.2,0-.43,0-.64Z"/>
      <path class="cls-9" d="m20.32,19.93h0s-.09-.05-.13-.03c-.04.02-.07.06-.07.11,0,.04.02.08.06.1.04.02.11.02.14-.02h0c.04-.06.04-.11,0-.16Z"/>
      <path class="cls-9" d="m21.07,19.7c-.07-.03-.13.01-.16.08,0,0,0,0,0,.01-.02.05.02.12.07.14.05.02.11,0,.14-.05,0,0,0,0,0-.01.04-.06,0-.14-.06-.16Z"/>
      <path class="cls-7" d="m23.16,9.77c-.11-.05-.25-.04-.36,0-.03-.02-.07.02-.05.05.16.19.46.24.7.27.03,0,.04-.03.03-.05-.06-.12-.2-.22-.32-.28Z"/>
      <path class="cls-7" d="m23.06,9.33c-.11-.05-.28-.05-.37.05-.02-.02-.06-.01-.06.02,0,.12.01.23.06.34,0,.02.04.03.06.01.16-.13.3-.03.43.08.04.04.08.07.14.07.11,0,.17-.12.13-.22-.06-.15-.25-.29-.39-.35Z"/>
      <path class="cls-7" d="m23.24,9c-.15-.07-.31-.11-.47-.1-.24.02-.48.19-.45.45-.03-.01-.08.03-.04.06.08.07.16.15.24.22.03.03.08.09.13.09.11.01.09-.14.09-.21.02-.31.35-.25.57-.2.07.02.17.03.18-.08,0-.12-.15-.19-.24-.23Z"/>
      <path class="cls-2" d="m23.91,8.1c-.33-.42-1.09-.51-1.49-.11-.07.07-.22.3-.28.45-.17.45.05.99.46,1.23.42.25,1.01.13,1.32-.24.32-.37.3-.96,0-1.33Z"/>
      <path class="cls-1" d="m26.33,14.99c-.3-.86-.78-1.4-1.3-2.14-.14-.2-.46-.66-.65-.87h0c-.39-.48-.46-.73-.44-.89.02-.18.04-.36.06-.54.01-.12.03-.27-.04-.38-.09-.13-.5-.16-.52-.14-.12,0-.29-.07-.4-.12,0,0,0,0,0,0-.17-.13-.33-.26-.47-.43-.12-.14-.26-.3-.3-.48-.04-.18,0-.35,0-.53,0-.11,0-.28-.07-.37-.06-.09-.19,0-.23.08-.06.1-.08.24-.11.35-.03.12-.05.24-.05.36,0,.24.08.45.19.66.06.12.13.23.18.35,0,0,0,.01,0,.02-.12.3.08.57.22.84.18.35.52.92.7,1.27,0,0,0,0,0,0,.41.91.87,1.8,1.31,2.69.29.58.61,1.56,1.39,1.64.24.02.53-.06.65-.28.17-.32-.01-.78-.12-1.08Z"/>
      <path class="cls-7" d="m24.28,8.97s0,0,0,0c0,0,0,0,0,0,0-.02-.03-.04-.05-.05-.11-.05-.24.04-.31.12-.11.12-.15.27-.19.43-.05.19-.14.33-.25.49-.16.23-.21.54.05.73.29.21.46-.21.53-.43.06-.2.11-.4.15-.6.04-.2.1-.43.08-.63,0-.01,0-.02,0-.03Z"/>
      <path class="cls-5" d="m40.19,38.23c-.02-.24-.07-.54-.18-.76-.04-.08-.19.12-.26.18-.27.21-1.82.29-1.96.31,0,0-.22.03-.24-.07-.01-.06-.08.04-.08.1.01.27.2.55.25.68.06.14.11.3.18.43.09.17.16.22.35.21.33-.01.68-.11.99-.18.24-.05.5-.11.69-.27.14-.11.21-.25.24-.39.03-.08.03-.16.01-.25Z"/>
      <path class="cls-2" d="m37.84,38.55c-.07-.15-.14-.29-.21-.44-.04-.08-.15-.06-.21,0-.02.02-.2.23-.23.34-.02.1-.02.2.01.3-.08.24-.16.48-.27.7-.19.36-.43.7-.69,1-.51.59-1.12,1.08-1.69,1.62-.94.89-1.94,2.16-1.66,3.55,0,.05.35.41.48.57.06.07.16.02.19-.05.13-.33.4-.93.4-.95.09-.73.19-1.52.63-2.12.41-.58.9-1.1,1.43-1.56,1.21-1.06,1.51-2.41,1.52-2.43.03-.07.18-.08.24-.13.05-.04.1-.1.11-.17.02-.08-.01-.16-.05-.23Z"/>
      <path class="cls-8" d="m35.15,42.1c-.71-.43-1.31.1-1.54.54-.19.37-.1.83.15,1.11.38.42.63.5,1.59.52.03,0,.61-1.67-.2-2.17Z"/>
      <path class="cls-7" d="m30.43,38.46c-.14-.23-.27-.44-.35-.71-.02-.07-.03-.15-.05-.22,0,0,0-.02,0-.03-.02-.12-.04-.25-.04-.38,0-.11,0-.21-.11-.21-.15,0-.17.25-.18.34-.08.49.08.97.34,1.36.07.1.17.26.32.2.16-.07.13-.25.06-.36Z"/>
      <path class="cls-7" d="m29.36,37.45c.02-.08.05-.28.19-.24.08.03.06.14.06.26,0,.21.07.42.15.62.05.12.11.23.17.34.06.09.14.18.19.28.04.09.03.2-.08.24-.17.06-.27-.14-.35-.24-.25-.36-.43-.8-.35-1.26Z"/>
      <path class="cls-6" d="m34.77,42.35c-.22-.23-1.14-.33-1.85-.97-.8-.73-1.41-1.98-1.47-2.11,0,0,0,0,0,0-.02-.04-.04-.12-.03-.15.02-.14.04-.27.02-.39-.03-.21-.13-.39-.27-.55-.04-.04-.07-.02-.07.03-.02.12-.15.26-.22.19-.14-.18-.29-.36-.38-.57-.08-.19-.11-.4-.16-.6,0-.01,0-.03,0-.04,0-.11-.03-.23-.11-.25-.08-.02-.15.04-.15.11-.01.24.03.58.1.81.06.21.16.44.28.63-.07.05-.15.1-.23.14-.08.04-.15.07-.24.1-.05.02-.1.03-.15.04-.16-.29-.33-.58-.4-.92,0-.03-.03-.05-.06-.05-.01,0-.03-.01-.04,0-.23.1,0,.52.05.66.06.16.26.66.48.9,0,0,0,0,0,0,.18.26.43.49.7.68.23.26.66,1.23,1.38,2.04,1.23,1.36,2.34,1.85,2.76,1.52.53-.4.31-1,.06-1.25Z"/>
      <path class="cls-3" d="m41.41,33.02c-.22-.15-.44-.3-.72-.36-.04,0-.07,0-.1.02-.03.02-.07.02-.09,0-.04-.04-.08-.09-.1-.14-.02-.07-.09-.13-.16-.08-.47.33-.15.9-.05,1.33.17.7.31,1.49-.26,1.85-.1.07-.24.16-.2.27.05.13.13.13.2.12.65-.07.04.7-.05.88-.1.2-.14.4-.15.62,0,.1.14.14.19.05.12-.21.27-.35.46-.46,0,.01,0,.02,0,.03,0,.02.01.06.03.08.04.03.11.03.16-.01.25-.23.5-.32.81-.42.2-.06.4-.13.56-.27.33-.29.4-.76.42-1.18.03-.74-.25-1.84-.95-2.32Z"/>
      <path class="cls-8" d="m40.26,35.9c-.16-.01-1.3.43-1.21.51.63.54,1.07.49,1.38.05.13-.19.17-.53-.17-.55Z"/>
      <path class="cls-2" d="m26.38,0c-.24-.1-1.5.87-1.72,1.07-.18.17,2.05,1.33,2.03,1-.06-1-.06-1.96-.31-2.07Z"/>
      <path class="cls-2" d="m12.53,26.48c-.33-.42-1.11-.53-1.49-.11-.02.02-.02.04,0,.06-.12.11-.21.24-.27.39-.17.45.05.99.46,1.23.42.25,1.01.13,1.32-.24.32-.37.3-.96,0-1.33Z"/>
      <path class="cls-7" d="m10.08,26.76c-.27.32-.51.89-.3,1.3.01.03.05.01.05-.01,0-.02,0-.03,0-.05,0,0,.01-.01.02-.02.07-.19.09-.39.15-.58.05-.19.13-.38.2-.56.03-.07-.08-.13-.12-.07Z"/>
      <path class="cls-6" d="m11.92,26.04c-.22-.11-.39.36-.46.5-.05.1-.11.2-.16.31-.04.09-.14.15-.24.14h0c-.08,0-.17-.02-.25-.03-.1-.02-.2-.05-.29-.09.08-.24.14-.48.26-.71.09-.18.21-.34.33-.51.02-.02.04-.05.06-.07.08-.08.15-.18.11-.25-.06-.1-.22-.01-.23,0-.2.16-.36.41-.49.62-.15.23-.29.48-.38.74-.12.32-.33.93-.48,1.38-.27.83-.57,1.52-.57,1.55,0,0,.08.1.08.1,0,.03.02.04.04.03.19.08.4.15.6.21.13.04.44.13.46-.02.03-.15.08-.67.1-.91,0-.08.04-.16.1-.22.37-.38.68-.85.83-1.34,0-.02.07-.19.09-.23.14-.37.26-.74.49-1.07.04-.06,0-.11-.02-.12Z"/>
      <path class="cls-8" d="m7.22,44.23c-.15-1.32-.47-5.54-.44-5.94.12-1.27.8-2.46,1.44-3.51.39-.65.78-1.29,1.11-1.98.31-.67.93-2.04,1.08-2.88,0-.04-.02-.08-.05-.1-.25-.14-.39-.18-.6-.25-.17-.05-.31-.07-.52-.1-.04,0-.08.02-.1.05-.55,1.04-.98,2.16-1.65,3.14-.88,1.29-1.94,2.46-3.06,3.57-.07.07-.15.14-.23.21-.05.04-.11.07-.17.08-.78.13-1.45.68-1.69,1.41-.16.49-.16,1.03-.16,1.54,0,.6,0,1.2-.01,1.8-.02,2.48-.02,4.14-.03,6.62,0,.11.12,1,1.01,1.32,1.06.38,2.18.72,3.27,1.02.52.14,1.77.55,1.79-.44,0-.43-.83-4.11-1-5.56Z"/>
      <path class="cls-7" d="m10.51,26.74c-.03.12-.09.31.05.39.15.08.27-.07.31-.2.09-.27.17-.51.32-.76.12-.19.27-.34.41-.5.09-.07.16-.15.1-.23-.09-.12-.29.04-.37.1-.42.28-.68.72-.81,1.2Z"/>
      <path class="cls-7" d="m10.82,26.86c-.03.13-.11.34.03.43.1.06.19-.01.23-.1.05-.11.06-.23.09-.34.04-.13.09-.25.15-.37.1-.2.24-.37.37-.54.1-.07.19-.15.16-.23-.05-.14-.22-.03-.3.01-.4.25-.62.69-.74,1.14Z"/>
      <g>
        <path class="cls-2" d="m12.5,25.34c-.05.07-.07.14-.1.22-.02.08-.06.16-.07.25,0,.11.12.14.17.05.05-.07.07-.16.1-.24.03-.08.05-.15.05-.24,0-.08-.12-.11-.16-.05Z"/>
        <path class="cls-2" d="m13.05,23.8c-.08.1-.11.24-.16.36-.04.1-.11.22-.08.32,0,.03.05.05.07.03.1-.05.13-.18.17-.28.05-.11.13-.24.14-.37,0-.08-.09-.14-.15-.07Z"/>
        <path class="cls-2" d="m13.59,22.41c-.08.09-.13.22-.17.34-.03.09-.08.23-.03.32.01.02.04.04.06.02.07-.07.08-.18.12-.27.04-.11.11-.22.15-.33.03-.07-.06-.14-.12-.07Z"/>
        <path class="cls-2" d="m14.07,21.23c-.06.06-.08.16-.1.23-.03.08-.07.16-.08.24-.01.08.1.15.15.07.05-.08.08-.16.11-.25.03-.08.08-.16.08-.25,0-.08-.11-.1-.16-.05Z"/>
        <path class="cls-2" d="m14.53,20.13c-.07.07-.1.16-.13.25-.04.09-.09.18-.1.27-.01.08.1.14.15.07.06-.08.1-.18.14-.27.04-.09.09-.17.09-.28,0-.08-.1-.09-.14-.04Z"/>
      </g>
      <g>
        <path class="cls-2" d="m19.38,13.49c.06-.05.1-.11.15-.18.04-.07.1-.14.13-.22.04-.1-.07-.16-.15-.1-.06.06-.1.13-.15.2-.05.07-.09.13-.11.21-.02.07.08.13.13.09Z"/>
        <path class="cls-2" d="m18.49,14.79c.1-.07.17-.2.24-.3.06-.08.16-.17.15-.28,0-.03-.03-.06-.06-.05-.11.02-.16.13-.23.22-.08.09-.18.19-.22.31-.03.07.05.16.12.1Z"/>
        <path class="cls-2" d="m17.64,15.96c.1-.06.18-.18.24-.28.05-.08.13-.19.11-.29,0-.02-.03-.04-.05-.03-.08.04-.12.15-.18.23-.07.1-.16.18-.22.27-.04.06.02.14.09.1Z"/>
        <path class="cls-2" d="m16.9,16.94c.07-.04.11-.13.16-.19.05-.07.1-.13.13-.21.03-.07-.06-.16-.12-.1-.07.06-.11.13-.17.2-.05.07-.11.13-.14.22-.02.08.08.12.14.09Z"/>
        <path class="cls-2" d="m16.2,17.86c.08-.04.13-.13.19-.2.06-.07.12-.14.16-.23.03-.07-.05-.15-.12-.1-.08.06-.14.14-.2.22-.06.07-.12.14-.15.24-.02.07.07.11.12.08Z"/>
        <path class="cls-2" d="m21.55,10.47c.1-.07.17-.18.24-.28.05-.08.13-.2.1-.29,0-.02-.03-.04-.05-.03-.08.05-.12.15-.17.23-.06.1-.15.18-.21.28-.04.06.03.14.09.1Z"/>
        <path class="cls-2" d="m20.84,11.47c.07-.05.11-.13.15-.2.05-.07.1-.14.13-.21.03-.07-.06-.16-.13-.1-.06.06-.11.13-.16.21-.05.07-.11.14-.13.22-.02.08.08.12.14.08Z"/>
        <path class="cls-2" d="m20.16,12.41c.08-.05.13-.13.18-.21.05-.07.12-.15.15-.23.03-.07-.06-.15-.12-.1-.08.06-.13.15-.19.22-.06.08-.12.14-.15.24-.02.07.07.1.12.07Z"/>
      </g>
      <g>
        <path class="cls-2" d="m24.53,4.77c.04-.06.06-.13.08-.2.02-.07.05-.15.06-.23,0-.1-.11-.13-.16-.05-.04.07-.06.15-.08.22-.02.07-.04.14-.04.22,0,.07.11.1.14.04Z"/>
        <path class="cls-2" d="m24.08,6.16c.07-.09.1-.22.13-.32.03-.09.1-.2.06-.29,0-.02-.04-.04-.07-.03-.09.05-.11.16-.15.25-.04.1-.11.22-.12.33,0,.07.09.12.14.06Z"/>
        <path class="cls-2" d="m23.62,7.42c.07-.08.11-.2.15-.31.03-.08.07-.21.02-.29,0-.02-.03-.03-.05-.01-.06.06-.07.16-.1.25-.03.1-.09.2-.13.3-.02.07.06.12.11.07Z"/>
        <path class="cls-2" d="m25.3,2.59c.05-.06.06-.14.08-.21.02-.07.05-.15.06-.22,0-.07-.1-.13-.14-.06-.04.07-.06.15-.09.23-.03.08-.06.15-.06.23,0,.08.11.09.15.04Z"/>
        <path class="cls-2" d="m24.94,3.6c.06-.06.08-.15.11-.23.03-.08.07-.16.08-.25,0-.07-.09-.12-.14-.06-.05.07-.08.17-.11.25-.03.08-.07.16-.07.25,0,.07.09.07.13.03Z"/>
      </g>
    </g>
  </g>
</svg>