<?xml version="1.0" encoding="UTF-8"?>
<svg id="Layer_2" data-name="Layer 2" xmlns="http://www.w3.org/2000/svg" viewBox="0 0 64.31 70">
  <defs>
    <style>
      .cls-1 {
        fill: #282462;
      }

      .cls-1, .cls-2 {
        stroke-width: 0px;
      }

      .cls-2 {
        fill: #e2007d;
      }
    </style>
  </defs>
  <g id="Layer_1-2" data-name="Layer 1">
    <rect class="cls-2" x="51.21" y="27.74" width="2.83" height="2.83"/>
    <rect class="cls-2" x="46.97" y="27.74" width="2.83" height="2.83"/>
    <rect class="cls-2" x="42.73" y="27.74" width="2.83" height="2.83"/>
    <rect class="cls-2" x="38.49" y="27.74" width="2.83" height="2.83"/>
    <rect class="cls-2" x="34.25" y="27.74" width="2.83" height="2.83"/>
    <rect class="cls-2" x="30.01" y="27.74" width="2.83" height="2.83"/>
    <rect class="cls-2" x="33.51" y="36.96" width="2.83" height="2.83"/>
    <rect class="cls-2" x="29.27" y="36.96" width="2.83" height="2.83"/>
    <rect class="cls-2" x="25.03" y="36.96" width="2.83" height="2.83"/>
    <rect class="cls-2" x="20.79" y="36.96" width="2.83" height="2.83"/>
    <rect class="cls-2" x="16.55" y="36.96" width="2.83" height="2.83"/>
    <rect class="cls-2" x="12.31" y="36.96" width="2.83" height="2.83"/>
    <polygon class="cls-1" points="24.01 1.85 18.47 7.39 24.01 12.93 5.54 12.93 5.54 1.85 24.01 1.85"/>
    <path class="cls-1" d="m58.34,53.89h-2.27c-.73,0-1.33-.59-1.33-1.33s.59-1.33,1.33-1.33h2.27c.89,0,1.72-.34,2.34-.97.63-.63.97-1.46.97-2.34,0-1.83-1.49-3.32-3.32-3.32H9.28c-1.59,0-3.09-.62-4.22-1.75-1.13-1.13-1.75-2.63-1.75-4.22,0-3.29,2.68-5.97,5.97-5.97h43.76c.89,0,1.72-.34,2.34-.97.63-.63.97-1.46.97-2.34,0-1.83-1.49-3.32-3.32-3.32h-28.51c-.73,0-1.33-.59-1.33-1.33s.59-1.33,1.33-1.33h28.51c3.29,0,5.97,2.68,5.97,5.97,0,1.59-.62,3.09-1.75,4.22-1.13,1.13-2.63,1.75-4.22,1.75H9.28c-1.83,0-3.32,1.49-3.32,3.32,0,.89.34,1.72.97,2.34s1.46.97,2.34.97h49.07c3.29,0,5.97,2.68,5.97,5.97,0,1.59-.62,3.09-1.75,4.22-1.13,1.13-2.63,1.75-4.22,1.75Z"/>
    <path class="cls-2" d="m24.01,14.77s0,0,0,0H5.54c-1.02,0-1.85-.83-1.85-1.85V1.85c0-1.02.83-1.85,1.85-1.85h18.47c.75,0,1.42.45,1.71,1.14.29.69.13,1.48-.4,2.01l-4.23,4.23,4.17,4.17c.38.34.61.83.61,1.37,0,1.02-.83,1.85-1.85,1.85Zm-16.62-3.69h12.16l-2.39-2.39c-.72-.72-.72-1.89,0-2.61l2.39-2.39H7.39v7.39Z"/>
    <path class="cls-2" d="m5.54,25.85c-1.02,0-1.85-.83-1.85-1.85v-11.08c0-1.02.83-1.85,1.85-1.85s1.85.83,1.85,1.85v11.08c0,1.02-.83,1.85-1.85,1.85Z"/>
    <path class="cls-2" d="m20.31,25.85H1.85c-1.02,0-1.85-.83-1.85-1.85s.83-1.85,1.85-1.85h18.47c1.02,0,1.85.83,1.85,1.85s-.83,1.85-1.85,1.85Z"/>
    <path class="cls-1" d="m62.87,69.33l-6.27-12.43c-.1-.22-.39-.22-.5,0l-6.27,12.43c-.2.41.23.82.63.62l5.89-3.13,5.89,3.13c.41.2.83-.22.63-.62h0Zm-.58.04l-5.67-3.02v-8.23s5.67,11.24,5.67,11.24Z"/>
  </g>
</svg>